HIERARCHY
ROOT Hips
{
	OFFSET 0.00000 0.00000 0.00000
	CHANNELS 6 Xposition Yposition Zposition Zrotation Yrotation Xrotation 
	JOINT LHipJoint
	{
		OFFSET 0 0 0
		CHANNELS 3 Zrotation Yrotation Xrotation
		JOINT LeftUpLeg
		{
			OFFSET 1.86795 -1.59681 0.65681
			CHANNELS 3 Zrotation Yrotation Xrotation
			JOINT LeftLeg
			{
				OFFSET 2.30491 -6.33268 0.00000
				CHANNELS 3 Zrotation Yrotation Xrotation
				JOINT LeftFoot
				{
					OFFSET 2.46780 -6.78022 0.00000
					CHANNELS 3 Zrotation Yrotation Xrotation
					JOINT LeftToeBase
					{
						OFFSET 0.07897 -0.21698 1.59652
						CHANNELS 3 Zrotation Yrotation Xrotation
						End Site
						{
							OFFSET 0.00000 -0.00000 0.82310
						}
					}
				}
			}
		}
	}
	JOINT RHipJoint
	{
		OFFSET 0 0 0
		CHANNELS 3 Zrotation Yrotation Xrotation
		JOINT RightUpLeg
		{
			OFFSET -1.93650 -1.59681 0.65681
			CHANNELS 3 Zrotation Yrotation Xrotation
			JOINT RightLeg
			{
				OFFSET -2.29410 -6.30299 0.00000
				CHANNELS 3 Zrotation Yrotation Xrotation
				JOINT RightFoot
				{
					OFFSET -2.48738 -6.83403 0.00000
					CHANNELS 3 Zrotation Yrotation Xrotation
					JOINT RightToeBase
					{
						OFFSET -0.08699 -0.23899 1.89395
						CHANNELS 3 Zrotation Yrotation Xrotation
						End Site
						{
							OFFSET -0.00000 -0.00000 0.96904
						}
					}
				}
			}
		}
	}
	JOINT LowerBack
	{
		OFFSET 0 0 0
		CHANNELS 3 Zrotation Yrotation Xrotation
		JOINT Spine
		{
			OFFSET 0.03629 1.99740 -0.07548
			CHANNELS 3 Zrotation Yrotation Xrotation
			JOINT Spine1
			{
				OFFSET 0.03970 1.94298 0.17218
				CHANNELS 3 Zrotation Yrotation Xrotation
				JOINT Neck
				{
					OFFSET 0 0 0
					CHANNELS 3 Zrotation Yrotation Xrotation
					JOINT Neck1
					{
						OFFSET -0.05054 1.79469 0.04241
						CHANNELS 3 Zrotation Yrotation Xrotation
						JOINT Head
						{
							OFFSET 0.05195 1.78475 -0.22133
							CHANNELS 3 Zrotation Yrotation Xrotation
							End Site
							{
								OFFSET 0.02420 1.80711 -0.07950
							}
						}
					}
				}
				JOINT LeftShoulder
				{
					OFFSET 0 0 0
					CHANNELS 3 Zrotation Yrotation Xrotation
					JOINT LeftArm
					{
						OFFSET 2.92134 1.19850 0.36056
						CHANNELS 3 Zrotation Yrotation Xrotation
						JOINT LeftForeArm
						{
							OFFSET 4.84137 -0.00000 0.00000
							CHANNELS 3 Zrotation Yrotation Xrotation
							JOINT LeftHand
							{
								OFFSET 3.24520 -0.00000 -0.00000
								CHANNELS 3 Zrotation Yrotation Xrotation
								JOINT LeftFingerBase
								{
									OFFSET 0 0 0
									CHANNELS 3 Zrotation Yrotation Xrotation
									JOINT LeftHandIndex1
									{
										OFFSET 0.52122 -0.00000 0.00000
										CHANNELS 3 Zrotation Yrotation Xrotation
										End Site
										{
											OFFSET 0.42022 -0.00000 0.00000
										}
									}
								}
								JOINT LThumb
								{
									OFFSET 0 0 0
									CHANNELS 3 Zrotation Yrotation Xrotation
									End Site
									{
										OFFSET 0.42664 -0.00000 0.42664
									}
								}
							}
						}
					}
				}
				JOINT RightShoulder
				{
					OFFSET 0 0 0
					CHANNELS 3 Zrotation Yrotation Xrotation
					JOINT RightArm
					{
						OFFSET -2.84327 1.20795 0.50191
						CHANNELS 3 Zrotation Yrotation Xrotation
						JOINT RightForeArm
						{
							OFFSET -4.72284 -0.00000 0.00000
							CHANNELS 3 Zrotation Yrotation Xrotation
							JOINT RightHand
							{
								OFFSET -3.23459 -0.00000 0.00000
								CHANNELS 3 Zrotation Yrotation Xrotation
								JOINT RightFingerBase
								{
									OFFSET 0 0 0
									CHANNELS 3 Zrotation Yrotation Xrotation
									JOINT RightHandIndex1
									{
										OFFSET -0.30742 -0.00000 0.00000
										CHANNELS 3 Zrotation Yrotation Xrotation
										End Site
										{
											OFFSET -0.24785 -0.00000 0.00000
										}
									}
								}
								JOINT RThumb
								{
									OFFSET 0 0 0
									CHANNELS 3 Zrotation Yrotation Xrotation
									End Site
									{
										OFFSET -0.25163 -0.00000 0.25163
									}
								}
							}
						}
					}
				}
			}
		}
	}
}
MOTION
Frames: 15
Frame Time: .0083333
13.8676 13.3121 -13.9882 7.0714 -22.4874 24.7479 0.0000 0.0000 0.0000 -7.8046 -34.7800 -72.4128 16.5721 19.7159 79.9317 2.3774 6.2891 -31.8849 0.4321 -4.2183 -11.6917 0.0000 0.0000 0.0000 0.3628 18.6159 -82.7884 -17.8983 -19.8938 83.8446 -1.7024 -8.4234 -28.9209 -0.1185 2.2196 -6.1129 0.2758 -1.9865 16.7788 -0.0396 -2.6446 -5.7350 0.6001 -1.2317 -16.0621 -1.5948 4.2917 -14.0291 1.9796 5.8744 -5.4152 1.1499 2.9760 0.5171 -0.0000 -0.0000 0.0000 -69.2011 0.0053 61.3088 70.9637 -58.5855 -43.5924 -0.0000 0.0000 -8.4298 -83.9934 26.5982 -76.7751 -7.1250 0.0000 -0.0000 -66.5625 41.8998 12.1904 -0.0000 -0.0000 0.0000 54.4421 7.6284 67.5330 -65.8110 57.6694 -39.2156 0.0000 -0.0000 -55.5547 44.3238 -5.6251 -5.4684 7.1250 -0.0000 -0.0000 46.3322 -27.0460 31.9193
13.8585 13.3153 -13.9699 7.0425 -22.3597 24.8053 0.0000 0.0000 0.0000 -7.7501 -34.8938 -72.3356 16.5546 19.7130 79.8798 2.3738 6.3247 -31.8821 0.4515 -4.3108 -11.9527 0.0000 0.0000 0.0000 0.4230 18.5821 -82.6873 -17.9001 -19.8940 83.8500 -1.7010 -8.7711 -29.1434 -0.1437 2.4428 -6.7311 0.4943 -1.9975 16.5330 -0.0921 -2.6186 -5.7908 0.4011 -1.2479 -15.9897 -1.3271 4.4930 -13.7826 1.7449 6.1013 -5.0393 1.0412 3.0825 0.6068 -0.0000 -0.0000 0.0000 -67.2841 0.5586 60.7728 67.3826 -57.9760 -40.5459 -0.0000 0.0000 -6.9724 -83.8081 27.2418 -76.6662 -7.1250 0.0000 -0.0000 -68.5771 42.8244 9.1385 -0.0000 -0.0000 0.0000 53.0049 6.3067 69.1340 -62.6667 56.9797 -36.5687 0.0000 -0.0000 -53.3198 42.0137 -6.5924 -5.9045 7.1250 -0.0000 -0.0000 46.5922 -29.1813 27.8586
13.8480 13.3116 -13.9548 7.0556 -22.3809 24.8004 0.0000 0.0000 0.0000 -7.7935 -34.9031 -72.1829 16.5344 19.7096 79.8201 2.3728 6.4810 -31.9595 0.5408 -4.7116 -13.0879 0.0000 0.0000 0.0000 0.3796 18.6956 -82.6260 -17.9167 -19.8956 83.8988 -1.7113 -8.8071 -29.2351 -0.1008 2.0477 -5.6375 0.5165 -1.9848 16.4797 -0.0816 -2.5962 -5.8649 0.3938 -1.2393 -16.0470 -1.1883 4.7695 -13.2817 1.3802 6.4500 -5.0793 0.9013 3.2483 0.5191 0.0000 -0.0000 0.0000 -65.7078 1.3074 59.4936 63.7713 -57.2339 -37.4962 -0.0000 0.0000 -4.6926 -82.7731 28.2932 -75.0222 -7.1250 0.0000 -0.0000 -71.2987 43.9212 4.9510 0.0000 -0.0000 0.0000 51.2505 5.0318 70.7928 -59.9779 56.3040 -34.3227 0.0000 -0.0000 -50.4420 40.4149 -6.7711 -5.7331 7.1250 -0.0000 -0.0000 46.3963 -30.0224 25.8759
13.8374 13.3188 -13.9419 7.2471 -22.5398 24.6494 0.0000 0.0000 0.0000 -8.1098 -34.8870 -71.8386 16.4878 19.7016 79.6818 2.3780 6.5741 -32.0395 0.5561 -4.7768 -13.2731 0.0000 0.0000 0.0000 0.2271 18.7367 -82.4959 -17.9170 -19.8957 83.8996 -1.7284 -8.5858 -29.2009 -0.0582 1.5571 -4.2832 0.2924 -1.9092 16.4870 -0.1288 -2.5530 -5.8929 0.4546 -1.2001 -16.0770 -1.1614 5.0666 -12.8200 1.1449 6.8426 -5.2326 0.8202 3.4407 0.3956 0.0000 -0.0000 0.0000 -64.0576 2.0007 58.0079 60.4503 -56.4287 -34.7160 -0.0000 0.0000 -2.1666 -81.3181 30.3797 -73.1991 -7.1250 0.0000 -0.0000 -77.4336 45.8024 -4.5215 0.0000 -0.0000 0.0000 49.3382 3.5318 72.1362 -58.0869 55.7782 -32.7542 0.0000 -0.0000 -46.4216 39.5104 -6.8509 -5.6180 7.1250 -0.0000 -0.0000 46.2328 -30.4372 24.8463
13.8257 13.3301 -13.9286 7.2697 -22.6492 24.6550 0.0000 0.0000 0.0000 -8.1849 -34.8308 -71.6877 16.4535 19.6957 79.5800 2.3671 6.7352 -32.0619 0.5168 -4.6074 -12.7921 0.0000 0.0000 0.0000 0.2394 18.8193 -82.3754 -17.8868 -19.8926 83.8108 -1.7503 -8.6017 -29.3548 -0.0472 1.4015 -3.8542 0.2172 -1.8203 16.3210 -0.1608 -2.4550 -5.9013 0.4255 -1.1519 -15.9804 -1.0891 5.3634 -12.9355 1.0773 7.2279 -4.8275 0.8160 3.6327 0.5434 0.0000 0.0000 0.0000 -62.3035 2.4507 56.3769 57.2348 -55.5269 -32.0506 -0.0000 -0.0000 0.8526 -80.0281 31.7523 -71.5253 -7.1250 0.0000 -0.0000 -81.1145 46.6291 -10.4082 0.0000 0.0000 0.0000 47.6036 1.8027 73.0231 -56.5329 55.3129 -31.4727 0.0000 -0.0000 -41.2389 38.2853 -6.7665 -5.3133 7.1250 -0.0000 -0.0000 45.8662 -30.7821 23.7447
13.8169 13.3398 -13.9143 7.0692 -22.6446 24.8445 0.0000 0.0000 0.0000 -7.9378 -34.7724 -71.7399 16.4344 19.6924 79.5233 2.3795 6.7934 -32.1665 0.5013 -4.5390 -12.5981 0.0000 0.0000 0.0000 0.4462 18.9405 -82.3067 -17.8391 -19.8877 83.6705 -1.7360 -8.6666 -29.3042 -0.0245 1.0101 -2.7767 0.4402 -1.7570 16.1395 -0.1347 -2.3157 -5.9729 0.2833 -1.1106 -15.9617 -1.1511 5.6355 -12.9958 1.0653 7.5989 -4.5017 0.8477 3.8201 0.6510 -0.0000 0.0000 0.0000 -60.5804 2.8863 54.5497 54.0510 -54.5042 -29.4418 -0.0000 -0.0000 4.1824 -79.1146 31.9683 -70.0381 -7.1250 0.0000 -0.0000 -81.1573 46.6870 -10.7195 -0.0000 0.0000 0.0000 46.1323 0.2705 73.6649 -54.0512 54.5042 -29.4420 0.0000 -0.0000 -35.5070 36.9475 -6.5553 -4.9075 7.1250 -0.0000 -0.0000 45.3519 -31.0097 22.7490
13.8136 13.3502 -13.9021 6.8058 -22.5311 24.9943 0.0000 0.0000 0.0000 -7.6278 -34.8006 -71.7571 16.4281 19.6913 79.5045 2.3799 6.7590 -32.1501 0.4747 -4.4187 -12.2578 0.0000 0.0000 0.0000 0.7955 18.9546 -82.1571 -17.7910 -19.8826 83.5293 -1.7055 -8.3834 -28.9153 -0.0105 0.6615 -1.8177 0.8434 -1.7426 16.1415 -0.0926 -2.1990 -6.0795 0.0713 -1.0956 -16.1082 -1.1309 5.9523 -12.5838 0.8266 8.0190 -4.6681 0.7671 4.0266 0.5325 0.0000 -0.0000 0.0000 -58.7235 3.5628 52.8578 51.0733 -53.4193 -27.0337 -0.0000 -0.0000 7.1409 -78.2188 33.3479 -69.2228 -7.1250 0.0000 -0.0000 -84.8949 47.3122 -16.7732 0.0000 -0.0000 0.0000 44.4362 -1.1695 74.3164 -51.4977 53.5820 -27.3749 0.0000 -0.0000 -29.3934 34.5454 -5.5501 -3.8094 7.1250 -0.0000 -0.0000 44.0052 -30.7759 21.7699
13.8082 13.3581 -13.8943 6.8162 -22.5389 25.0742 0.0000 0.0000 0.0000 -7.5714 -34.8668 -71.7895 16.4040 19.6871 79.4332 2.3423 6.8754 -31.9925 0.4729 -4.4105 -12.2346 0.0000 0.0000 0.0000 0.8109 18.9413 -82.1607 -17.7618 -19.8795 83.4433 -1.6997 -8.4191 -28.9000 -0.0337 1.1857 -3.2598 0.8858 -1.7054 16.1631 -0.0919 -2.1404 -6.2345 0.0347 -1.0735 -16.3130 -0.9038 6.4023 -12.2521 0.4574 8.5888 -4.5667 0.6286 4.3034 0.5271 -0.0000 0.0000 0.0000 -56.8630 4.3915 51.2165 48.1439 -52.2189 -24.6994 -0.0000 -0.0000 9.9898 -75.6179 36.3321 -66.5966 -7.1250 0.0000 -0.0000 -91.3426 48.0985 -28.0563 -0.0000 0.0000 0.0000 42.5076 -2.6758 74.9739 -49.0571 52.6081 -25.4231 0.0000 -0.0000 -22.6402 30.9394 -3.1839 -1.9068 7.1250 -0.0000 -0.0000 41.4210 -29.5237 21.2547
13.8001 13.3639 -13.8872 7.1963 -22.7695 24.9969 0.0000 0.0000 0.0000 -7.9465 -34.9247 -71.6750 16.3419 19.6761 79.2486 2.3313 6.9819 -31.9859 0.4887 -4.4823 -12.4378 0.0000 0.0000 0.0000 0.3751 18.9380 -82.2806 -17.7548 -19.8787 83.4228 -1.6987 -8.8020 -29.1487 -0.0862 1.8938 -5.2121 0.4518 -1.6142 16.1631 -0.1518 -2.1279 -6.3748 0.2108 -1.0266 -16.4696 -0.8227 6.8823 -11.9648 0.2091 9.2188 -4.4338 0.5554 4.6145 0.5301 0.0000 0.0000 0.0000 -55.1632 5.1711 49.2988 45.3164 -50.9225 -22.4841 -0.0000 -0.0000 13.1598 -70.9118 39.9404 -61.6741 -7.1250 0.0000 -0.0000 -95.9470 48.9567 -38.2734 0.0000 0.0000 0.0000 40.6345 -3.9732 75.4735 -46.0944 51.2935 -23.0897 0.0000 -0.0000 -16.1000 26.8948 -0.6952 -0.3526 7.1250 -0.0000 -0.0000 38.4588 -28.0898 20.5143
13.7925 13.3708 -13.8780 7.3145 -22.9363 24.8898 0.0000 0.0000 0.0000 -8.1568 -34.8929 -71.4349 16.3002 19.6686 79.1249 2.3514 6.8930 -32.0556 0.4358 -4.2362 -11.7422 0.0000 0.0000 0.0000 0.2896 18.9896 -82.1683 -17.7385 -19.8769 83.3748 -1.6985 -8.8850 -29.2033 -0.0950 1.9876 -5.4714 0.3350 -1.5645 16.2251 -0.2005 -2.0958 -6.4397 0.2147 -1.0028 -16.5863 -0.8251 7.2690 -11.3178 0.0354 9.7332 -4.9703 0.4771 4.8724 0.2566 0.0000 -0.0000 0.0000 -53.5008 6.0325 46.9924 42.7703 -49.6282 -20.5256 -0.0000 -0.0000 16.8361 -65.3923 44.1073 -56.6536 -7.1250 0.0000 -0.0000 -99.1535 50.3374 -47.5766 0.0000 -0.0000 0.0000 38.9585 -5.0323 75.6905 -42.9740 49.7365 -20.6809 0.0000 -0.0000 -10.4462 22.8501 1.0662 0.4493 7.1250 -0.0000 -0.0000 35.6419 -27.1248 19.2392
13.7862 13.3819 -13.8651 7.0610 -22.9215 24.9770 0.0000 0.0000 0.0000 -7.9287 -34.8442 -71.3499 16.2982 19.6682 79.1190 2.3847 6.6484 -32.1186 0.3426 -3.7614 -10.4062 0.0000 0.0000 0.0000 0.6208 19.0539 -81.9744 -17.7034 -19.8731 83.2716 -1.7315 -8.7277 -29.3150 -0.0747 1.7636 -4.8527 0.6874 -1.5509 16.2064 -0.1944 -1.9953 -6.5088 -0.0072 -0.9948 -16.6730 -0.7709 7.6154 -10.5278 -0.1506 10.1859 -5.7603 0.3678 5.0996 -0.1105 -0.0000 -0.0000 0.0000 -51.8310 7.0148 44.5540 40.4167 -48.3148 -18.7498 -0.0000 -0.0000 20.6852 -58.8993 48.4977 -51.1489 -7.1250 0.0000 -0.0000 -100.9405 52.4708 -55.4288 -0.0000 -0.0000 0.0000 37.3922 -6.1636 75.5022 -39.9633 48.0482 -18.4120 0.0000 -0.0000 -5.3439 19.4421 3.1902 1.1254 7.1250 -0.0000 -0.0000 33.0011 -25.6281 18.6238
13.7825 13.3881 -13.8524 6.8288 -22.8727 25.2319 0.0000 0.0000 0.0000 -7.5521 -34.8686 -71.5633 16.3192 19.6720 79.1812 2.4456 6.1972 -32.2369 0.2588 -3.2728 -9.0393 0.0000 0.0000 0.0000 0.8284 19.1085 -82.0265 -17.6781 -19.8702 83.1971 -1.7651 -8.6358 -29.4744 -0.0593 1.5712 -4.3221 1.0347 -1.5351 16.0007 -0.1543 -1.8897 -6.5835 -0.1936 -0.9827 -16.6446 -0.6359 8.0353 -10.0602 -0.4896 10.7256 -6.2477 0.2248 5.3676 -0.3147 0.0000 -0.0000 0.0000 -50.2514 7.9369 41.9805 38.2505 -46.9986 -17.1486 -0.0000 -0.0000 24.3307 -50.8210 53.0382 -44.4344 -7.1250 0.0000 -0.0000 -101.8789 55.4533 -62.4845 0.0000 -0.0000 0.0000 35.7534 -7.1596 75.0361 -36.9292 46.1416 -16.1890 0.0000 -0.0000 -1.2046 14.8984 5.8198 1.5453 7.1250 -0.0000 -0.0000 29.5320 -23.6515 17.5951
13.7805 13.3836 -13.8446 6.7478 -22.8835 25.4010 0.0000 0.0000 0.0000 -7.3550 -34.8883 -71.7400 16.3346 19.6748 79.2270 2.4966 5.9066 -32.3842 0.2336 -3.1106 -8.5868 0.0000 0.0000 0.0000 0.8877 19.1269 -82.1581 -17.6723 -19.8696 83.1800 -1.8236 -8.3249 -29.6518 -0.0362 1.2275 -3.3750 1.2149 -1.5240 15.9205 -0.1663 -1.8366 -6.6451 -0.3261 -0.9799 -16.6761 -0.4610 8.5225 -9.7738 -0.8184 11.3506 -6.6619 0.0908 5.6778 -0.4622 0.0000 0.0000 0.0000 -48.7701 8.8384 39.0283 36.1782 -45.6353 -15.6497 -0.0000 -0.0000 28.0325 -41.5740 57.1036 -36.6787 -7.1250 0.0000 -0.0000 -102.5038 58.8472 -68.7128 0.0000 0.0000 0.0000 34.1373 -7.8986 74.3887 -33.9750 44.0662 -14.0957 0.0000 0.0000 1.2993 9.9803 7.3456 1.2889 7.1250 -0.0000 -0.0000 26.0648 -22.5227 15.7536
13.7767 13.3828 -13.8370 6.7331 -22.9928 25.4500 0.0000 0.0000 0.0000 -7.3591 -34.8502 -71.6841 16.3199 19.6721 79.1832 2.4614 6.3007 -32.3827 0.3114 -3.5874 -9.9187 0.0000 0.0000 0.0000 0.9069 19.1811 -82.1772 -17.6655 -19.8688 83.1600 -1.8931 -7.7030 -29.7090 -0.0089 0.6078 -1.6701 1.2771 -1.4820 15.9854 -0.2390 -1.7758 -6.6918 -0.4607 -0.9652 -16.7796 -0.2471 8.9740 -9.3035 -1.2065 11.9208 -7.4437 -0.0884 5.9616 -0.7412 0.0000 0.0000 0.0000 -47.3042 9.6710 35.6309 34.0936 -44.1540 -14.1783 -0.0000 -0.0000 32.0602 -34.0721 59.3575 -30.1951 -7.1250 0.0000 -0.0000 -102.5816 61.4045 -72.3706 0.0000 0.0000 0.0000 32.8178 -8.6420 73.0770 -31.1834 41.8864 -12.1921 0.0000 0.0000 2.4399 6.7206 8.2554 0.9693 7.1250 -0.0000 -0.0000 23.7586 -21.7839 14.5137
13.7727 13.3885 -13.8286 6.7978 -23.2350 25.4524 0.0000 0.0000 0.0000 -7.4807 -34.8071 -71.5660 16.2892 19.6666 79.0923 2.4003 6.8529 -32.3202 0.4139 -4.1298 -11.4421 0.0000 0.0000 0.0000 0.7699 19.3423 -82.1687 -17.6534 -19.8675 83.1245 -1.8843 -7.4523 -29.4991 -0.0020 0.2858 -0.7852 1.1959 -1.3869 16.0453 -0.3509 -1.6815 -6.7069 -0.5702 -0.9227 -16.8355 0.0813 9.3780 -8.8747 -1.8057 12.4084 -8.2894 -0.3502 6.2030 -1.0115 0.0000 0.0000 0.0000 -45.9069 10.3431 31.6049 32.1762 -42.6872 -12.8601 -0.0000 -0.0000 36.4297 -30.7482 60.0901 -27.2784 -7.1250 0.0000 -0.0000 -102.4891 62.4844 -73.6652 0.0000 0.0000 0.0000 31.6902 -9.5326 70.9544 -28.7604 39.8069 -10.6070 0.0000 0.0000 2.6602 5.1097 9.6714 0.8606 7.1250 -0.0000 -0.0000 22.4619 -20.5000 14.2971
